<svg xmlns="http://www.w3.org/2000/svg" viewBox="0 0 117 16"><defs><style>.cls-1{fill:#fff;}.cls-2{fill:#35acb2;}.cls-3{fill:none;}</style></defs><g id="Layer_2" data-name="Layer 2"><g id="Layer_1-2" data-name="Layer 1"><path class="cls-1" d="M42.6,15.13,37.83,2.65h-.08c.24,2.2.1,10.06.14,12.48H36.38V1.05h2.46L43.3,12.66h.07l4.5-11.61h2.45V15.13H48.68c0-2.58-.1-10,.13-12.46h-.07L43.92,15.13Z"/><path class="cls-1" d="M53.35,9.84c-.25,7.27,10,7.39,9.69,0A4.88,4.88,0,1,0,53.35,9.84ZM58.19,14C55.8,14,55,12.19,55,9.84s.77-4.07,3.17-4.1,3.21,1.74,3.22,4.1S60.58,14,58.19,14Z"/><path class="cls-1" d="M68.15,15.13l-4-10.56h1.71c.57,1.64,2.91,7.79,3.18,9.11h.08c.82-2.83,1.45-4.21,3.19-9.11H74L70,15.13Z"/><path class="cls-1" d="M75.59,1.72a1,1,0,1,1,1.88,0A1,1,0,1,1,75.59,1.72Z"/><rect class="cls-1" x="75.72" y="4.57" width="1.6" height="10.55"/><path class="cls-1" d="M87.89,5.69a4.48,4.48,0,0,0-6.51.19c-2.59,3.26-1.26,9.72,3.78,9.44a7.64,7.64,0,0,0,3.43-.69V13.21c-3,1.33-6.86,1.08-6.81-3.07H89C89.13,8.55,88.9,6.72,87.89,5.69ZM81.81,8.84C82,7.05,82.9,5.72,84.73,5.72s2.6,1.3,2.6,3.12Z"/><path class="cls-1" d="M91.84,1.05V15.13c5.74.25,11.7,0,11.68-7.18S97.43.85,91.84,1.05Zm3,11.61V3.5c3.21-.26,5.67.55,5.59,4.53C100.52,11.82,98.07,12.94,94.83,12.66Z"/><path class="cls-1" d="M114.35,7.75v-.1a2.78,2.78,0,0,0,2.17-3c0-4.75-6.72-3.31-10.08-3.56V15.13c3.46-.14,10.48,1.11,10.43-4.09C116.86,9.24,116.16,8.15,114.35,7.75ZM109.42,3.5c1.42.08,4-.43,4,1.51s-2.59,1.54-4,1.61Zm4.35,7.24a1.76,1.76,0,0,1-.58,1.45c-.67.65-2.78.44-3.77.47V9C111,9,113.91,8.74,113.77,10.74Z"/><path class="cls-2" d="M20.46,0h-.33V.83a.5.5,0,0,1-.5.5H18a.5.5,0,0,1-.5-.5V0H4.13V.83a.5.5,0,0,1-.5.5H2a.5.5,0,0,1-.5-.5V0H1.13a1,1,0,0,0-1,1V15a1,1,0,0,0,1,1h.33v-.83a.5.5,0,0,1,.5-.5H3.63a.5.5,0,0,1,.5.5V16H17.46v-.83a.5.5,0,0,1,.5-.5h1.67a.5.5,0,0,1,.5.5V16h.33a1,1,0,0,0,1-1V1A1,1,0,0,0,20.46,0ZM4.13,12.83a.5.5,0,0,1-.5.5H2a.5.5,0,0,1-.5-.5V11.17a.5.5,0,0,1,.5-.5H3.63a.5.5,0,0,1,.5.5Zm0-4a.5.5,0,0,1-.5.5H2a.5.5,0,0,1-.5-.5V7.17a.5.5,0,0,1,.5-.5H3.63a.5.5,0,0,1,.5.5Zm0-4a.5.5,0,0,1-.5.5H2a.5.5,0,0,1-.5-.5V3.17a.5.5,0,0,1,.5-.5H3.63a.5.5,0,0,1,.5.5ZM15.46,13.5a.5.5,0,0,1-.5.5H6.63a.5.5,0,0,1-.5-.5v-4a.5.5,0,0,1,.5-.5H15a.5.5,0,0,1,.5.5Zm0-7A.5.5,0,0,1,15,7H6.63a.5.5,0,0,1-.5-.5v-4a.5.5,0,0,1,.5-.5H15a.51.51,0,0,1,.5.5Zm4.67,6.33a.5.5,0,0,1-.5.5H18a.5.5,0,0,1-.5-.5V11.17a.5.5,0,0,1,.5-.5h1.67a.5.5,0,0,1,.5.5Zm0-4a.5.5,0,0,1-.5.5H18a.5.5,0,0,1-.5-.5V7.17a.5.5,0,0,1,.5-.5h1.67a.5.5,0,0,1,.5.5Zm0-4a.5.5,0,0,1-.5.5H18a.5.5,0,0,1-.5-.5V3.17a.5.5,0,0,1,.5-.5h1.67a.5.5,0,0,1,.5.5Z"/><rect class="cls-3" width="117" height="16"/></g></g></svg>